<svg width="136" height="176" viewBox="0 0 136 176" fill="none" xmlns="http://www.w3.org/2000/svg">
<path d="M4 169.5C4 169.5 20.0787 170.919 29 166C40.6704 159.566 45.9123 152.012 50.5 139.5C56 124.5 55.7152 112.604 60.5 105C65.2848 97.396 76 87.5 76 87.5H134" stroke="#D25720" stroke-width="2"/>
<path d="M5 6.50021C5 6.50021 26.1692 6.352 36 14.0002C44.0377 20.2534 47.1607 26.2204 50 36.0002C54.5 51.5 51 48.5 58 65.0002C62.3354 75.2194 76.5 87.5 76.5 87.5" stroke="#006CC2" stroke-width="2"/>
<path d="M34 87L134 87.5" stroke="#FF4955" stroke-width="2"/>
<path d="M0 163H1C3.76142 163 6 165.239 6 168V171C6 173.761 3.76142 176 1 176H0V163Z" fill="#D25720"/>
<path d="M28 80H29C31.7614 80 34 82.2386 34 85V88C34 90.7614 31.7614 93 29 93H28V80Z" fill="#FF4955"/>
<path d="M0 0H1C3.76142 0 6 2.23858 6 5V8C6 10.7614 3.76142 13 1 13H0V0Z" fill="#006CC2"/>
<path d="M136 87.5L133 89.6651L133 85.3349L136 87.5Z" fill="#FF4955"/>
</svg>
